  0
SECTION
  2
HEADER
  9
$ACADVER
  1
AC1024
  9
$ACADMAINTVER
 70
6
  9
$DWGCODEPAGE
  3
ANSI_1252
  9
$LASTSAVEDBY
  1
ezdxf
  9
$INSBASE
 10
0.0
 20
0.0
 30
0.0
  9
$EXTMIN
 10
1e+20
 20
1e+20
 30
1e+20
  9
$EXTMAX
 10
-1e+20
 20
-1e+20
 30
-1e+20
  9
$LIMMIN
 10
0.0
 20
0.0
  9
$LIMMAX
 10
420.0
 20
297.0
  9
$ORTHOMODE
 70
0
  9
$REGENMODE
 70
1
  9
$FILLMODE
 70
1
  9
$QTEXTMODE
 70
0
  9
$MIRRTEXT
 70
1
  9
$LTSCALE
 40
1.0
  9
$ATTMODE
 70
1
  9
$TEXTSIZE
 40
2.5
  9
$TRACEWID
 40
1.0
  9
$TEXTSTYLE
  7
Standard
  9
$CLAYER
  8
0
  9
$CELTYPE
  6
ByLayer
  9
$CECOLOR
 62
256
  9
$CELTSCALE
 40
1.0
  9
$DISPSILH
 70
0
  9
$DIMSCALE
 40
1.0
  9
$DIMASZ
 40
2.5
  9
$DIMEXO
 40
0.625
  9
$DIMDLI
 40
3.75
  9
$DIMRND
 40
0.0
  9
$DIMDLE
 40
0.0
  9
$DIMEXE
 40
1.25
  9
$DIMTP
 40
0.0
  9
$DIMTM
 40
0.0
  9
$DIMTXT
 40
2.5
  9
$DIMCEN
 40
2.5
  9
$DIMTSZ
 40
0.0
  9
$DIMTOL
 70
0
  9
$DIMLIM
 70
0
  9
$DIMTIH
 70
0
  9
$DIMTOH
 70
0
  9
$DIMSE1
 70
0
  9
$DIMSE2
 70
0
  9
$DIMTAD
 70
1
  9
$DIMZIN
 70
8
  9
$DIMBLK
  1

  9
$DIMASO
 70
1
  9
$DIMSHO
 70
1
  9
$DIMPOST
  1

  9
$DIMAPOST
  1

  9
$DIMALT
 70
0
  9
$DIMALTD
 70
3
  9
$DIMALTF
 40
0.03937007874
  9
$DIMLFAC
 40
1.0
  9
$DIMTOFL
 70
1
  9
$DIMTVP
 40
0.0
  9
$DIMTIX
 70
0
  9
$DIMSOXD
 70
0
  9
$DIMSAH
 70
0
  9
$DIMBLK1
  1

  9
$DIMBLK2
  1

  9
$DIMSTYLE
  2
ISO-25
  9
$DIMCLRD
 70
0
  9
$DIMCLRE
 70
0
  9
$DIMCLRT
 70
0
  9
$DIMTFAC
 40
1.0
  9
$DIMGAP
 40
0.625
  9
$DIMJUST
 70
0
  9
$DIMSD1
 70
0
  9
$DIMSD2
 70
0
  9
$DIMTOLJ
 70
0
  9
$DIMTZIN
 70
8
  9
$DIMALTZ
 70
0
  9
$DIMALTTZ
 70
0
  9
$DIMUPT
 70
0
  9
$DIMDEC
 70
2
  9
$DIMTDEC
 70
2
  9
$DIMALTU
 70
2
  9
$DIMALTTD
 70
3
  9
$DIMTXSTY
  7
Standard
  9
$DIMAUNIT
 70
0
  9
$DIMADEC
 70
0
  9
$DIMALTRND
 40
0.0
  9
$DIMAZIN
 70
0
  9
$DIMDSEP
 70
44
  9
$DIMATFIT
 70
3
  9
$DIMFRAC
 70
0
  9
$DIMLDRBLK
  1

  9
$DIMLUNIT
 70
2
  9
$DIMLWD
 70
-2
  9
$DIMLWE
 70
-2
  9
$DIMTMOVE
 70
0
  9
$DIMFXL
 40
1.0
  9
$DIMFXLON
 70
0
  9
$DIMJOGANG
 40
0.785398163397
  9
$DIMTFILL
 70
0
  9
$DIMTFILLCLR
 70
0
  9
$DIMARCSYM
 70
0
  9
$DIMLTYPE
  6

  9
$DIMLTEX1
  6

  9
$DIMLTEX2
  6

  9
$DIMTXTDIRECTION
 70
0
  9
$LUNITS
 70
2
  9
$LUPREC
 70
4
  9
$SKETCHINC
 40
1.0
  9
$FILLETRAD
 40
10.0
  9
$AUNITS
 70
0
  9
$AUPREC
 70
2
  9
$MENU
  1
.
  9
$ELEVATION
 40
0.0
  9
$PELEVATION
 40
0.0
  9
$THICKNESS
 40
0.0
  9
$LIMCHECK
 70
0
  9
$CHAMFERA
 40
0.0
  9
$CHAMFERB
 40
0.0
  9
$CHAMFERC
 40
0.0
  9
$CHAMFERD
 40
0.0
  9
$SKPOLY
 70
0
  9
$TDCREATE
 40
2461301.4822222223
  9
$TDUCREATE
 40
2458532.153996898
  9
$TDUPDATE
 40
2461301.4822222223
  9
$TDUUPDATE
 40
2458532.1544311
  9
$TDINDWG
 40
0.0
  9
$TDUSRTIMER
 40
0.0
  9
$USRTIMER
 70
1
  9
$ANGBASE
 50
0.0
  9
$ANGDIR
 70
0
  9
$PDMODE
 70
0
  9
$PDSIZE
 40
0.0
  9
$PLINEWID
 40
0.0
  9
$SPLFRAME
 70
0
  9
$SPLINETYPE
 70
6
  9
$SPLINESEGS
 70
8
  9
$HANDSEED
  5
E5
  9
$SURFTAB1
 70
6
  9
$SURFTAB2
 70
6
  9
$SURFTYPE
 70
6
  9
$SURFU
 70
6
  9
$SURFV
 70
6
  9
$UCSBASE
  2

  9
$UCSNAME
  2

  9
$UCSORG
 10
0.0
 20
0.0
 30
0.0
  9
$UCSXDIR
 10
1.0
 20
0.0
 30
0.0
  9
$UCSYDIR
 10
0.0
 20
1.0
 30
0.0
  9
$UCSORTHOREF
  2

  9
$UCSORTHOVIEW
 70
0
  9
$UCSORGTOP
 10
0.0
 20
0.0
 30
0.0
  9
$UCSORGBOTTOM
 10
0.0
 20
0.0
 30
0.0
  9
$UCSORGLEFT
 10
0.0
 20
0.0
 30
0.0
  9
$UCSORGRIGHT
 10
0.0
 20
0.0
 30
0.0
  9
$UCSORGFRONT
 10
0.0
 20
0.0
 30
0.0
  9
$UCSORGBACK
 10
0.0
 20
0.0
 30
0.0
  9
$PUCSBASE
  2

  9
$PUCSNAME
  2

  9
$PUCSORG
 10
0.0
 20
0.0
 30
0.0
  9
$PUCSXDIR
 10
1.0
 20
0.0
 30
0.0
  9
$PUCSYDIR
 10
0.0
 20
1.0
 30
0.0
  9
$PUCSORTHOREF
  2

  9
$PUCSORTHOVIEW
 70
0
  9
$PUCSORGTOP
 10
0.0
 20
0.0
 30
0.0
  9
$PUCSORGBOTTOM
 10
0.0
 20
0.0
 30
0.0
  9
$PUCSORGLEFT
 10
0.0
 20
0.0
 30
0.0
  9
$PUCSORGRIGHT
 10
0.0
 20
0.0
 30
0.0
  9
$PUCSORGFRONT
 10
0.0
 20
0.0
 30
0.0
  9
$PUCSORGBACK
 10
0.0
 20
0.0
 30
0.0
  9
$USERI1
 70
0
  9
$USERI2
 70
0
  9
$USERI3
 70
0
  9
$USERI4
 70
0
  9
$USERI5
 70
0
  9
$USERR1
 40
0.0
  9
$USERR2
 40
0.0
  9
$USERR3
 40
0.0
  9
$USERR4
 40
0.0
  9
$USERR5
 40
0.0
  9
$WORLDVIEW
 70
1
  9
$SHADEDGE
 70
3
  9
$SHADEDIF
 70
70
  9
$TILEMODE
 70
1
  9
$MAXACTVP
 70
64
  9
$PINSBASE
 10
0.0
 20
0.0
 30
0.0
  9
$PLIMCHECK
 70
0
  9
$PEXTMIN
 10
1e+20
 20
1e+20
 30
1e+20
  9
$PEXTMAX
 10
-1e+20
 20
-1e+20
 30
-1e+20
  9
$PLIMMIN
 10
0.0
 20
0.0
  9
$PLIMMAX
 10
420.0
 20
297.0
  9
$UNITMODE
 70
0
  9
$VISRETAIN
 70
1
  9
$PLINEGEN
 70
0
  9
$PSLTSCALE
 70
1
  9
$TREEDEPTH
 70
3020
  9
$CMLSTYLE
  2
Standard
  9
$CMLJUST
 70
0
  9
$CMLSCALE
 40
20.0
  9
$PROXYGRAPHICS
 70
1
  9
$MEASUREMENT
 70
1
  9
$CELWEIGHT
370
-1
  9
$ENDCAPS
280
0
  9
$JOINSTYLE
280
0
  9
$LWDISPLAY
290
0
  9
$INSUNITS
 70
6
  9
$HYPERLINKBASE
  1

  9
$STYLESHEET
  1

  9
$XEDIT
290
1
  9
$CEPSNTYPE
380
0
  9
$PSTYLEMODE
290
1
  9
$FINGERPRINTGUID
  2
{77DE9369-CE1F-49EF-94AC-A89FBEFEF024}
  9
$VERSIONGUID
  2
{A8991DE3-0D72-48DD-9061-7FAA97287982}
  9
$EXTNAMES
290
1
  9
$PSVPSCALE
 40
0.0
  9
$OLESTARTUP
290
0
  9
$SORTENTS
280
127
  9
$INDEXCTL
280
0
  9
$HIDETEXT
280
1
  9
$XCLIPFRAME
280
1
  9
$HALOGAP
280
0
  9
$OBSCOLOR
 70
257
  9
$OBSLTYPE
280
0
  9
$INTERSECTIONDISPLAY
280
0
  9
$INTERSECTIONCOLOR
 70
257
  9
$DIMASSOC
280
2
  9
$PROJECTNAME
  1

  9
$CAMERADISPLAY
290
0
  9
$LENSLENGTH
 40
50.0
  9
$CAMERAHEIGHT
 40
0.0
  9
$STEPSPERSEC
 40
24.0
  9
$STEPSIZE
 40
100.0
  9
$3DDWFPREC
 40
2.0
  9
$PSOLWIDTH
 40
0.005
  9
$PSOLHEIGHT
 40
0.08
  9
$LOFTANG1
 40
1.570796326795
  9
$LOFTANG2
 40
1.570796326795
  9
$LOFTMAG1
 40
0.0
  9
$LOFTMAG2
 40
0.0
  9
$LOFTPARAM
 70
7
  9
$LOFTNORMALS
280
1
  9
$LATITUDE
 40
37.795
  9
$LONGITUDE
 40
-122.394
  9
$NORTHDIRECTION
 40
0.0
  9
$TIMEZONE
 70
-8000
  9
$LIGHTGLYPHDISPLAY
280
1
  9
$TILEMODELIGHTSYNCH
280
1
  9
$CMATERIAL
347
20
  9
$SOLIDHIST
280
0
  9
$SHOWHIST
280
1
  9
$DWFFRAME
280
2
  9
$DGNFRAME
280
2
  9
$REALWORLDSCALE
290
1
  9
$INTERFERECOLOR
 62
256
  9
$CSHADOW
280
0
  9
$SHADOWPLANELOCATION
 40
0.0
  0
ENDSEC
  0
SECTION
  2
CLASSES
  0
CLASS
  1
ACDBDICTIONARYWDFLT
  2
AcDbDictionaryWithDefault
  3
ObjectDBX Classes
 90
0
 91
0
280
0
281
0
  0
CLASS
  1
SUN
  2
AcDbSun
  3
SCENEOE
 90
1153
 91
0
280
0
281
0
  0
CLASS
  1
VISUALSTYLE
  2
AcDbVisualStyle
  3
ObjectDBX Classes
 90
4095
 91
0
280
0
281
0
  0
CLASS
  1
MATERIAL
  2
AcDbMaterial
  3
ObjectDBX Classes
 90
1153
 91
0
280
0
281
0
  0
CLASS
  1
SCALE
  2
AcDbScale
  3
ObjectDBX Classes
 90
1153
 91
0
280
0
281
0
  0
CLASS
  1
TABLESTYLE
  2
AcDbTableStyle
  3
ObjectDBX Classes
 90
4095
 91
0
280
0
281
0
  0
CLASS
  1
MLEADERSTYLE
  2
AcDbMLeaderStyle
  3
ACDB_MLEADERSTYLE_CLASS
 90
4095
 91
0
280
0
281
0
  0
CLASS
  1
DICTIONARYVAR
  2
AcDbDictionaryVar
  3
ObjectDBX Classes
 90
0
 91
0
280
0
281
0
  0
CLASS
  1
CELLSTYLEMAP
  2
AcDbCellStyleMap
  3
ObjectDBX Classes
 90
1152
 91
0
280
0
281
0
  0
CLASS
  1
MENTALRAYRENDERSETTINGS
  2
AcDbMentalRayRenderSettings
  3
SCENEOE
 90
1024
 91
0
280
0
281
0
  0
CLASS
  1
ACDBDETAILVIEWSTYLE
  2
AcDbDetailViewStyle
  3
ObjectDBX Classes
 90
1025
 91
0
280
0
281
0
  0
CLASS
  1
ACDBSECTIONVIEWSTYLE
  2
AcDbSectionViewStyle
  3
ObjectDBX Classes
 90
1025
 91
0
280
0
281
0
  0
CLASS
  1
RASTERVARIABLES
  2
AcDbRasterVariables
  3
ISM
 90
0
 91
0
280
0
281
0
  0
CLASS
  1
ACDBPLACEHOLDER
  2
AcDbPlaceHolder
  3
ObjectDBX Classes
 90
0
 91
0
280
0
281
0
  0
CLASS
  1
LAYOUT
  2
AcDbLayout
  3
ObjectDBX Classes
 90
0
 91
0
280
0
281
0
  0
ENDSEC
  0
SECTION
  2
TABLES
  0
TABLE
  2
VPORT
  5
8
330
0
100
AcDbSymbolTable
 70
1
  0
VPORT
  5
23
330
8
100
AcDbSymbolTableRecord
100
AcDbViewportTableRecord
  2
*Active
 70
0
 10
0.0
 20
0.0
 11
1.0
 21
1.0
 12
0.0
 22
0.0
 13
0.0
 23
0.0
 14
0.5
 24
0.5
 15
0.5
 25
0.5
 16
0.0
 26
0.0
 36
1.0
 17
0.0
 27
0.0
 37
0.0
 40
1000.0
 41
1.34
 42
50.0
 43
0.0
 44
0.0
 50
0.0
 51
0.0
 71
0
 72
1000
 73
1
 74
3
 75
0
 76
0
 77
0
 78
0
281
0
 65
0
146
0.0
  0
ENDTAB
  0
TABLE
  2
LTYPE
  5
2
330
0
100
AcDbSymbolTable
 70
3
  0
LTYPE
  5
24
330
2
100
AcDbSymbolTableRecord
100
AcDbLinetypeTableRecord
  2
ByBlock
 70
0
  3

 72
65
 73
0
 40
0.0
  0
LTYPE
  5
25
330
2
100
AcDbSymbolTableRecord
100
AcDbLinetypeTableRecord
  2
ByLayer
 70
0
  3

 72
65
 73
0
 40
0.0
  0
LTYPE
  5
26
330
2
100
AcDbSymbolTableRecord
100
AcDbLinetypeTableRecord
  2
Continuous
 70
0
  3

 72
65
 73
0
 40
0.0
  0
ENDTAB
  0
TABLE
  2
LAYER
  5
1
330
0
100
AcDbSymbolTable
 70
6
  0
LAYER
  5
27
330
1
100
AcDbSymbolTableRecord
100
AcDbLayerTableRecord
  2
0
 70
0
 62
7
  6
Continuous
370
-3
390
13
347
21
  0
LAYER
  5
28
330
1
100
AcDbSymbolTableRecord
100
AcDbLayerTableRecord
  2
Defpoints
 70
0
 62
7
  6
Continuous
290
0
370
-3
390
13
347
21
  0
LAYER
  5
2F
330
1
100
AcDbSymbolTableRecord
100
AcDbLayerTableRecord
  2
01_Bordure_maison
 70
0
 62
2
  6
Continuous
370
-3
390
13
347
21
  0
LAYER
  5
47
330
1
100
AcDbSymbolTableRecord
100
AcDbLayerTableRecord
  2
02_Terrasse_de_droite
 70
0
 62
3
  6
Continuous
370
-3
390
13
347
21
  0
LAYER
  5
79
330
1
100
AcDbSymbolTableRecord
100
AcDbLayerTableRecord
  2
03_Terrasse_de_gauche
 70
0
 62
4
  6
Continuous
370
-3
390
13
347
21
  0
LAYER
  5
B6
330
1
100
AcDbSymbolTableRecord
100
AcDbLayerTableRecord
  2
04_Zone_escalier
 70
0
 62
5
  6
Continuous
370
-3
390
13
347
21
  0
ENDTAB
  0
TABLE
  2
STYLE
  5
5
330
0
100
AcDbSymbolTable
 70
1
  0
STYLE
  5
29
330
5
100
AcDbSymbolTableRecord
100
AcDbTextStyleTableRecord
  2
Standard
 70
0
 40
0.0
 41
1.0
 50
0.0
 71
0
 42
2.5
  3
txt
  4

  0
ENDTAB
  0
TABLE
  2
VIEW
  5
7
330
0
100
AcDbSymbolTable
 70
0
  0
ENDTAB
  0
TABLE
  2
UCS
  5
6
330
0
100
AcDbSymbolTable
 70
0
  0
ENDTAB
  0
TABLE
  2
APPID
  5
3
330
0
100
AcDbSymbolTable
 70
3
  0
APPID
  5
2A
330
3
100
AcDbSymbolTableRecord
100
AcDbRegAppTableRecord
  2
ACAD
 70
0
  0
APPID
  5
E2
330
3
100
AcDbSymbolTableRecord
100
AcDbRegAppTableRecord
  2
HATCHBACKGROUNDCOLOR
 70
0
  0
APPID
  5
E3
330
3
100
AcDbSymbolTableRecord
100
AcDbRegAppTableRecord
  2
EZDXF
 70
0
  0
ENDTAB
  0
TABLE
  2
DIMSTYLE
  5
4
330
0
100
AcDbSymbolTable
 70
1
100
AcDbDimStyleTable
  0
DIMSTYLE
105
2B
330
4
100
AcDbSymbolTableRecord
100
AcDbDimStyleTableRecord
  2
Standard
 70
0
 40
1.0
 41
2.5
 42
0.625
 43
3.75
 44
1.25
 45
0.0
 46
0.0
 47
0.0
 48
0.0
 49
2.5
140
2.5
141
2.5
142
0.0
143
0.03937007874
144
1.0
145
0.0
146
1.0
147
0.625
148
0.0
 69
0
 70
0
 71
0
 72
0
 73
0
 74
0
 75
0
 76
0
 77
1
 78
8
 79
3
170
0
171
3
172
1
173
0
174
0
175
0
176
0
177
0
178
0
179
2
271
2
272
2
273
2
274
3
275
0
276
0
277
2
278
44
279
0
280
0
281
0
282
0
283
0
284
8
285
0
286
0
288
0
289
3
290
0
371
-2
372
-2
  0
ENDTAB
  0
TABLE
  2
BLOCK_RECORD
  5
9
330
0
100
AcDbSymbolTable
 70
2
  0
BLOCK_RECORD
  5
17
330
9
100
AcDbSymbolTableRecord
100
AcDbBlockTableRecord
  2
*Model_Space
340
1A
 70
0
280
1
281
0
  0
BLOCK_RECORD
  5
1B
330
9
100
AcDbSymbolTableRecord
100
AcDbBlockTableRecord
  2
*Paper_Space
340
1E
 70
0
280
1
281
0
  0
ENDTAB
  0
ENDSEC
  0
SECTION
  2
BLOCKS
  0
BLOCK
  5
18
330
17
100
AcDbEntity
  8
0
100
AcDbBlockBegin
  2
*Model_Space
 70
0
 10
0.0
 20
0.0
 30
0.0
  3
*Model_Space
  1

  0
ENDBLK
  5
19
330
17
100
AcDbEntity
  8
0
100
AcDbBlockEnd
  0
BLOCK
  5
1C
330
1B
100
AcDbEntity
  8
0
100
AcDbBlockBegin
  2
*Paper_Space
 70
0
 10
0.0
 20
0.0
 30
0.0
  3
*Paper_Space
  1

  0
ENDBLK
  5
1D
330
1B
100
AcDbEntity
  8
0
100
AcDbBlockEnd
  0
ENDSEC
  0
SECTION
  2
ENTITIES
  0
POLYLINE
  5
30
330
17
100
AcDbEntity
  8
01_Bordure_maison
100
AcDb3dPolyline
 66
1
 10
0.0
 20
0.0
 30
0.0
 70
8
  0
VERTEX
  5
32
330
17
100
AcDbEntity
  8
01_Bordure_maison
100
AcDbVertex
100
AcDb3dPolylineVertex
 10
0.0
 20
0.0
 30
0.0
 70
32
  0
VERTEX
  5
33
330
17
100
AcDbEntity
  8
01_Bordure_maison
100
AcDbVertex
100
AcDb3dPolylineVertex
 10
2.8602472691164254
 20
0.0
 30
-0.09
 70
32
  0
VERTEX
  5
34
330
17
100
AcDbEntity
  8
01_Bordure_maison
100
AcDbVertex
100
AcDb3dPolylineVertex
 10
2.8610389132417215
 20
-0.00038006615556588843
 30
-0.09
 70
32
  0
VERTEX
  5
35
330
17
100
AcDbEntity
  8
01_Bordure_maison
100
AcDbVertex
100
AcDb3dPolylineVertex
 10
2.861436779964067
 20
-0.0004103752287312694
 30
-0.09
 70
32
  0
VERTEX
  5
36
330
17
100
AcDbEntity
  8
01_Bordure_maison
100
AcDbVertex
100
AcDb3dPolylineVertex
 10
5.020105259081236
 20
0.37661044012863554
 30
-0.22
 70
32
  0
VERTEX
  5
37
330
17
100
AcDbEntity
  8
01_Bordure_maison
100
AcDbVertex
100
AcDb3dPolylineVertex
 10
8.84981685862814
 20
0.4594682297167954
 30
-0.4
 70
32
  0
VERTEX
  5
38
330
17
100
AcDbEntity
  8
01_Bordure_maison
100
AcDbVertex
100
AcDb3dPolylineVertex
 10
10.335533948447154
 20
-0.12133203084501455
 30
-0.46
 70
32
  0
VERTEX
  5
39
330
17
100
AcDbEntity
  8
01_Bordure_maison
100
AcDbVertex
100
AcDb3dPolylineVertex
 10
10.482681130990281
 20
-4.673955918580208
 30
-0.5
 70
32
  0
VERTEX
  5
3A
330
17
100
AcDbEntity
  8
01_Bordure_maison
100
AcDbVertex
100
AcDb3dPolylineVertex
 10
10.46992630324805
 20
-8.581667196273619
 30
-0.59
 70
32
  0
VERTEX
  5
3B
330
17
100
AcDbEntity
  8
01_Bordure_maison
100
AcDbVertex
100
AcDb3dPolylineVertex
 10
10.649291549469579
 20
-9.88346209477551
 30
-0.27
 70
32
  0
VERTEX
  5
3C
330
17
100
AcDbEntity
  8
01_Bordure_maison
100
AcDbVertex
100
AcDb3dPolylineVertex
 10
11.017223491648528
 20
-9.50475455544167
 30
-0.34
 70
32
  0
SEQEND
  5
31
330
30
100
AcDbEntity
  8
01_Bordure_maison
  0
TEXT
  5
3D
330
17
100
AcDbEntity
  8
01_Bordure_maison
100
AcDbText
 10
0.0
 20
1.7594682297167954
 30
0.0
 40
0.32
  1
Bordure maison - NON RACCORDE
100
AcDbText
  0
TEXT
  5
3E
330
17
100
AcDbEntity
  8
01_Bordure_maison
100
AcDbText
 10
0.08
 20
0.08
 30
0.0
 40
0.13
  1
P00
100
AcDbText
  0
TEXT
  5
3F
330
17
100
AcDbEntity
  8
01_Bordure_maison
100
AcDbText
 10
2.9402472691164254
 20
0.08
 30
-0.09
 40
0.13
  1
P01
100
AcDbText
  0
TEXT
  5
40
330
17
100
AcDbEntity
  8
01_Bordure_maison
100
AcDbText
 10
5.100105259081236
 20
0.45661044012863555
 30
-0.22
 40
0.13
  1
P04
100
AcDbText
  0
TEXT
  5
41
330
17
100
AcDbEntity
  8
01_Bordure_maison
100
AcDbText
 10
8.92981685862814
 20
0.5394682297167954
 30
-0.4
 40
0.13
  1
P05
100
AcDbText
  0
TEXT
  5
42
330
17
100
AcDbEntity
  8
01_Bordure_maison
100
AcDbText
 10
10.415533948447154
 20
-0.04133203084501455
 30
-0.46
 40
0.13
  1
P06
100
AcDbText
  0
TEXT
  5
43
330
17
100
AcDbEntity
  8
01_Bordure_maison
100
AcDbText
 10
10.562681130990281
 20
-4.593955918580208
 30
-0.5
 40
0.13
  1
P07
100
AcDbText
  0
TEXT
  5
44
330
17
100
AcDbEntity
  8
01_Bordure_maison
100
AcDbText
 10
10.54992630324805
 20
-8.501667196273619
 30
-0.59
 40
0.13
  1
P08
100
AcDbText
  0
TEXT
  5
45
330
17
100
AcDbEntity
  8
01_Bordure_maison
100
AcDbText
 10
10.729291549469579
 20
-9.80346209477551
 30
-0.27
 40
0.13
  1
P09
100
AcDbText
  0
TEXT
  5
46
330
17
100
AcDbEntity
  8
01_Bordure_maison
100
AcDbText
 10
11.097223491648528
 20
-9.42475455544167
 30
-0.34
 40
0.13
  1
P10
100
AcDbText
  0
POLYLINE
  5
48
330
17
100
AcDbEntity
  8
02_Terrasse_de_droite
100
AcDb3dPolyline
 66
1
 10
0.0
 20
0.0
 30
0.0
 70
8
  0
VERTEX
  5
4A
330
17
100
AcDbEntity
  8
02_Terrasse_de_droite
100
AcDbVertex
100
AcDb3dPolylineVertex
 10
25.0
 20
0.0
 30
0.0
 70
32
  0
VERTEX
  5
4B
330
17
100
AcDbEntity
  8
02_Terrasse_de_droite
100
AcDbVertex
100
AcDb3dPolylineVertex
 10
25.84285461876811
 20
0.0
 30
0.0
 70
32
  0
VERTEX
  5
4C
330
17
100
AcDbEntity
  8
02_Terrasse_de_droite
100
AcDbVertex
100
AcDb3dPolylineVertex
 10
25.969776154475266
 20
-0.6549126309031149
 30
0.0
 70
32
  0
VERTEX
  5
4D
330
17
100
AcDbEntity
  8
02_Terrasse_de_droite
100
AcDbVertex
100
AcDb3dPolylineVertex
 10
29.514779876406678
 20
-0.7533095462399421
 30
0.04
 70
32
  0
VERTEX
  5
4E
330
17
100
AcDbEntity
  8
02_Terrasse_de_droite
100
AcDbVertex
100
AcDb3dPolylineVertex
 10
29.83547996899035
 20
-1.17504363949768
 30
0.03
 70
32
  0
VERTEX
  5
4F
330
17
100
AcDbEntity
  8
02_Terrasse_de_droite
100
AcDbVertex
100
AcDb3dPolylineVertex
 10
29.806726481802958
 20
-3.9940999595923294
 30
-0.02
 70
32
  0
VERTEX
  5
50
330
17
100
AcDbEntity
  8
02_Terrasse_de_droite
100
AcDbVertex
100
AcDb3dPolylineVertex
 10
29.792508828557708
 20
-6.584016404045111
 30
-0.08
 70
32
  0
VERTEX
  5
51
330
17
100
AcDbEntity
  8
02_Terrasse_de_droite
100
AcDbVertex
100
AcDb3dPolylineVertex
 10
29.360494800766965
 20
-6.434748721675368
 30
-0.1
 70
32
  0
VERTEX
  5
52
330
17
100
AcDbEntity
  8
02_Terrasse_de_droite
100
AcDbVertex
100
AcDb3dPolylineVertex
 10
27.54816174045635
 20
-5.285168376281592
 30
0.17
 70
32
  0
VERTEX
  5
53
330
17
100
AcDbEntity
  8
02_Terrasse_de_droite
100
AcDbVertex
100
AcDb3dPolylineVertex
 10
22.634763784491593
 20
-5.43644282988874
 30
0.03
 70
32
  0
VERTEX
  5
54
330
17
100
AcDbEntity
  8
02_Terrasse_de_droite
100
AcDbVertex
100
AcDb3dPolylineVertex
 10
20.3196387028611
 20
-5.555822924867852
 30
-0.09
 70
32
  0
VERTEX
  5
55
330
17
100
AcDbEntity
  8
02_Terrasse_de_droite
100
AcDbVertex
100
AcDb3dPolylineVertex
 10
19.37781965347808
 20
-4.461864658843303
 30
-0.14
 70
32
  0
VERTEX
  5
56
330
17
100
AcDbEntity
  8
02_Terrasse_de_droite
100
AcDbVertex
100
AcDb3dPolylineVertex
 10
19.29931600934375
 20
-3.315442861595557
 30
-0.12
 70
32
  0
VERTEX
  5
57
330
17
100
AcDbEntity
  8
02_Terrasse_de_droite
100
AcDbVertex
100
AcDb3dPolylineVertex
 10
19.182826520871185
 20
-3.299092839469394
 30
-0.14
 70
32
  0
VERTEX
  5
58
330
17
100
AcDbEntity
  8
02_Terrasse_de_droite
100
AcDbVertex
100
AcDb3dPolylineVertex
 10
19.18804394001785
 20
-2.542448908382509
 30
-0.05
 70
32
  0
VERTEX
  5
59
330
17
100
AcDbEntity
  8
02_Terrasse_de_droite
100
AcDbVertex
100
AcDb3dPolylineVertex
 10
20.806007204174538
 20
-2.5784544965414167
 30
-0.03
 70
32
  0
VERTEX
  5
5A
330
17
100
AcDbEntity
  8
02_Terrasse_de_droite
100
AcDbVertex
100
AcDb3dPolylineVertex
 10
20.795848448108696
 20
-3.484726156576105
 30
-0.08
 70
32
  0
VERTEX
  5
5B
330
17
100
AcDbEntity
  8
02_Terrasse_de_droite
100
AcDbVertex
100
AcDb3dPolylineVertex
 10
21.294444577782453
 20
-3.527491689014557
 30
-0.07
 70
32
  0
VERTEX
  5
5C
330
17
100
AcDbEntity
  8
02_Terrasse_de_droite
100
AcDbVertex
100
AcDb3dPolylineVertex
 10
22.792739104968188
 20
-3.543889159139379
 30
-0.04
 70
32
  0
VERTEX
  5
5D
330
17
100
AcDbEntity
  8
02_Terrasse_de_droite
100
AcDbVertex
100
AcDb3dPolylineVertex
 10
23.307163328782856
 20
-3.533305464379664
 30
-0.02
 70
32
  0
VERTEX
  5
5E
330
17
100
AcDbEntity
  8
02_Terrasse_de_droite
100
AcDbVertex
100
AcDb3dPolylineVertex
 10
23.306585114446257
 20
-2.607603383717633
 30
0.05
 70
32
  0
VERTEX
  5
5F
330
17
100
AcDbEntity
  8
02_Terrasse_de_droite
100
AcDbVertex
100
AcDb3dPolylineVertex
 10
23.306007830462573
 20
-2.608169968642797
 30
0.05
 70
32
  0
VERTEX
  5
60
330
17
100
AcDbEntity
  8
02_Terrasse_de_droite
100
AcDbVertex
100
AcDb3dPolylineVertex
 10
24.939346106890625
 20
-2.5950947887770237
 30
0.0
 70
32
  0
VERTEX
  5
61
330
17
100
AcDbEntity
  8
02_Terrasse_de_droite
100
AcDbVertex
100
AcDb3dPolylineVertex
 10
25.0
 20
0.0
 30
0.0
 70
32
  0
SEQEND
  5
49
330
48
100
AcDbEntity
  8
02_Terrasse_de_droite
  0
TEXT
  5
62
330
17
100
AcDbEntity
  8
02_Terrasse_de_droite
100
AcDbText
 10
19.182826520871185
 20
1.3
 30
0.0
 40
0.32
  1
Terrasse de droite - NON RACCORDE
100
AcDbText
  0
TEXT
  5
63
330
17
100
AcDbEntity
  8
02_Terrasse_de_droite
100
AcDbText
 10
25.08
 20
0.08
 30
0.0
 40
0.13
  1
P00
100
AcDbText
  0
TEXT
  5
64
330
17
100
AcDbEntity
  8
02_Terrasse_de_droite
100
AcDbText
 10
25.92285461876811
 20
0.08
 30
0.0
 40
0.13
  1
P01
100
AcDbText
  0
TEXT
  5
65
330
17
100
AcDbEntity
  8
02_Terrasse_de_droite
100
AcDbText
 10
26.049776154475264
 20
-0.574912630903115
 30
0.0
 40
0.13
  1
P02
100
AcDbText
  0
TEXT
  5
66
330
17
100
AcDbEntity
  8
02_Terrasse_de_droite
100
AcDbText
 10
29.594779876406676
 20
-0.6733095462399421
 30
0.04
 40
0.13
  1
P03
100
AcDbText
  0
TEXT
  5
67
330
17
100
AcDbEntity
  8
02_Terrasse_de_droite
100
AcDbText
 10
29.915479968990347
 20
-1.09504363949768
 30
0.03
 40
0.13
  1
P04
100
AcDbText
  0
TEXT
  5
68
330
17
100
AcDbEntity
  8
02_Terrasse_de_droite
100
AcDbText
 10
29.886726481802956
 20
-3.9140999595923294
 30
-0.02
 40
0.13
  1
P05
100
AcDbText
  0
TEXT
  5
69
330
17
100
AcDbEntity
  8
02_Terrasse_de_droite
100
AcDbText
 10
29.872508828557706
 20
-6.504016404045111
 30
-0.08
 40
0.13
  1
P06
100
AcDbText
  0
TEXT
  5
6A
330
17
100
AcDbEntity
  8
02_Terrasse_de_droite
100
AcDbText
 10
29.440494800766963
 20
-6.354748721675368
 30
-0.1
 40
0.13
  1
P07
100
AcDbText
  0
TEXT
  5
6B
330
17
100
AcDbEntity
  8
02_Terrasse_de_droite
100
AcDbText
 10
27.62816174045635
 20
-5.205168376281592
 30
0.17
 40
0.13
  1
P08
100
AcDbText
  0
TEXT
  5
6C
330
17
100
AcDbEntity
  8
02_Terrasse_de_droite
100
AcDbText
 10
22.71476378449159
 20
-5.35644282988874
 30
0.03
 40
0.13
  1
P09
100
AcDbText
  0
TEXT
  5
6D
330
17
100
AcDbEntity
  8
02_Terrasse_de_droite
100
AcDbText
 10
20.399638702861097
 20
-5.475822924867852
 30
-0.09
 40
0.13
  1
P10
100
AcDbText
  0
TEXT
  5
6E
330
17
100
AcDbEntity
  8
02_Terrasse_de_droite
100
AcDbText
 10
19.45781965347808
 20
-4.381864658843303
 30
-0.14
 40
0.13
  1
P11
100
AcDbText
  0
TEXT
  5
6F
330
17
100
AcDbEntity
  8
02_Terrasse_de_droite
100
AcDbText
 10
19.37931600934375
 20
-3.235442861595557
 30
-0.12
 40
0.13
  1
P12
100
AcDbText
  0
TEXT
  5
70
330
17
100
AcDbEntity
  8
02_Terrasse_de_droite
100
AcDbText
 10
19.262826520871183
 20
-3.219092839469394
 30
-0.14
 40
0.13
  1
P13
100
AcDbText
  0
TEXT
  5
71
330
17
100
AcDbEntity
  8
02_Terrasse_de_droite
100
AcDbText
 10
19.268043940017847
 20
-2.462448908382509
 30
-0.05
 40
0.13
  1
P14
100
AcDbText
  0
TEXT
  5
72
330
17
100
AcDbEntity
  8
02_Terrasse_de_droite
100
AcDbText
 10
20.886007204174536
 20
-2.4984544965414166
 30
-0.03
 40
0.13
  1
P15
100
AcDbText
  0
TEXT
  5
73
330
17
100
AcDbEntity
  8
02_Terrasse_de_droite
100
AcDbText
 10
20.875848448108695
 20
-3.404726156576105
 30
-0.08
 40
0.13
  1
P16
100
AcDbText
  0
TEXT
  5
74
330
17
100
AcDbEntity
  8
02_Terrasse_de_droite
100
AcDbText
 10
21.37444457778245
 20
-3.447491689014557
 30
-0.07
 40
0.13
  1
P17
100
AcDbText
  0
TEXT
  5
75
330
17
100
AcDbEntity
  8
02_Terrasse_de_droite
100
AcDbText
 10
22.872739104968186
 20
-3.463889159139379
 30
-0.04
 40
0.13
  1
P18
100
AcDbText
  0
TEXT
  5
76
330
17
100
AcDbEntity
  8
02_Terrasse_de_droite
100
AcDbText
 10
23.387163328782854
 20
-3.453305464379664
 30
-0.02
 40
0.13
  1
P19
100
AcDbText
  0
TEXT
  5
77
330
17
100
AcDbEntity
  8
02_Terrasse_de_droite
100
AcDbText
 10
23.386585114446255
 20
-2.527603383717633
 30
0.05
 40
0.13
  1
P20
100
AcDbText
  0
TEXT
  5
78
330
17
100
AcDbEntity
  8
02_Terrasse_de_droite
100
AcDbText
 10
25.019346106890623
 20
-2.5150947887770236
 30
0.0
 40
0.13
  1
P22
100
AcDbText
  0
POLYLINE
  5
7A
330
17
100
AcDbEntity
  8
03_Terrasse_de_gauche
100
AcDb3dPolyline
 66
1
 10
0.0
 20
0.0
 30
0.0
 70
8
  0
VERTEX
  5
7C
330
17
100
AcDbEntity
  8
03_Terrasse_de_gauche
100
AcDbVertex
100
AcDb3dPolylineVertex
 10
0.0
 20
20.0
 30
0.0
 70
32
  0
VERTEX
  5
7D
330
17
100
AcDbEntity
  8
03_Terrasse_de_gauche
100
AcDbVertex
100
AcDb3dPolylineVertex
 10
3.0428822329668335
 20
20.0
 30
-0.07
 70
32
  0
VERTEX
  5
7E
330
17
100
AcDbEntity
  8
03_Terrasse_de_gauche
100
AcDbVertex
100
AcDb3dPolylineVertex
 10
7.186002484766018
 20
19.908276398248592
 30
-0.17
 70
32
  0
VERTEX
  5
7F
330
17
100
AcDbEntity
  8
03_Terrasse_de_gauche
100
AcDbVertex
100
AcDb3dPolylineVertex
 10
7.195036204797786
 20
19.145910982271392
 30
-0.17
 70
32
  0
VERTEX
  5
80
330
17
100
AcDbEntity
  8
03_Terrasse_de_gauche
100
AcDbVertex
100
AcDb3dPolylineVertex
 10
8.093502020142262
 20
19.236282842624913
 30
-0.32
 70
32
  0
VERTEX
  5
81
330
17
100
AcDbEntity
  8
03_Terrasse_de_gauche
100
AcDbVertex
100
AcDb3dPolylineVertex
 10
8.97537583729384
 20
19.400810447251907
 30
-0.33
 70
32
  0
VERTEX
  5
82
330
17
100
AcDbEntity
  8
03_Terrasse_de_gauche
100
AcDbVertex
100
AcDb3dPolylineVertex
 10
11.059138387364147
 20
19.44078661548933
 30
-0.41
 70
32
  0
VERTEX
  5
83
330
17
100
AcDbEntity
  8
03_Terrasse_de_gauche
100
AcDbVertex
100
AcDb3dPolylineVertex
 10
11.084136639422683
 20
21.100076072802807
 30
-0.4
 70
32
  0
VERTEX
  5
84
330
17
100
AcDbEntity
  8
03_Terrasse_de_gauche
100
AcDbVertex
100
AcDb3dPolylineVertex
 10
10.210392991023648
 20
21.102705454832297
 30
-0.43
 70
32
  0
VERTEX
  5
85
330
17
100
AcDbEntity
  8
03_Terrasse_de_gauche
100
AcDbVertex
100
AcDb3dPolylineVertex
 10
10.18473261276314
 20
21.545107347509287
 30
-0.45
 70
32
  0
VERTEX
  5
86
330
17
100
AcDbEntity
  8
03_Terrasse_de_gauche
100
AcDbVertex
100
AcDb3dPolylineVertex
 10
10.173466905940431
 20
23.078186467407317
 30
-0.48
 70
32
  0
VERTEX
  5
87
330
17
100
AcDbEntity
  8
03_Terrasse_de_gauche
100
AcDbVertex
100
AcDb3dPolylineVertex
 10
10.184254543303233
 20
23.556578624199755
 30
-0.48
 70
32
  0
VERTEX
  5
88
330
17
100
AcDbEntity
  8
03_Terrasse_de_gauche
100
AcDbVertex
100
AcDb3dPolylineVertex
 10
11.108958005781055
 20
23.557305289778814
 30
-0.51
 70
32
  0
VERTEX
  5
89
330
17
100
AcDbEntity
  8
03_Terrasse_de_gauche
100
AcDbVertex
100
AcDb3dPolylineVertex
 10
11.094718706917725
 20
25.13775631245903
 30
-0.51
 70
32
  0
VERTEX
  5
8A
330
17
100
AcDbEntity
  8
03_Terrasse_de_gauche
100
AcDbVertex
100
AcDb3dPolylineVertex
 10
13.684882308262774
 20
25.162239444674515
 30
-0.58
 70
32
  0
VERTEX
  5
8B
330
17
100
AcDbEntity
  8
03_Terrasse_de_gauche
100
AcDbVertex
100
AcDb3dPolylineVertex
 10
13.609359285333964
 20
25.993843660530047
 30
-0.6
 70
32
  0
VERTEX
  5
8C
330
17
100
AcDbEntity
  8
03_Terrasse_de_gauche
100
AcDbVertex
100
AcDb3dPolylineVertex
 10
13.124589681946365
 20
26.066036929670602
 30
-0.59
 70
32
  0
VERTEX
  5
8D
330
17
100
AcDbEntity
  8
03_Terrasse_de_gauche
100
AcDbVertex
100
AcDb3dPolylineVertex
 10
13.12470919931134
 20
26.06606441866455
 30
-0.59
 70
32
  0
VERTEX
  5
8E
330
17
100
AcDbEntity
  8
03_Terrasse_de_gauche
100
AcDbVertex
100
AcDb3dPolylineVertex
 10
13.110097006269283
 20
29.978600415800912
 30
-0.56
 70
32
  0
VERTEX
  5
8F
330
17
100
AcDbEntity
  8
03_Terrasse_de_gauche
100
AcDbVertex
100
AcDb3dPolylineVertex
 10
12.40655684215999
 20
30.113973552002307
 30
-0.61
 70
32
  0
VERTEX
  5
90
330
17
100
AcDbEntity
  8
03_Terrasse_de_gauche
100
AcDbVertex
100
AcDb3dPolylineVertex
 10
12.40650305934575
 20
30.11787041568737
 30
-0.61
 70
32
  0
VERTEX
  5
91
330
17
100
AcDbEntity
  8
03_Terrasse_de_gauche
100
AcDbVertex
100
AcDb3dPolylineVertex
 10
8.86248331985775
 20
30.104428297648436
 30
-0.6
 70
32
  0
VERTEX
  5
92
330
17
100
AcDbEntity
  8
03_Terrasse_de_gauche
100
AcDbVertex
100
AcDb3dPolylineVertex
 10
8.905468935345288
 20
26.04606677315664
 30
-0.66
 70
32
  0
VERTEX
  5
93
330
17
100
AcDbEntity
  8
03_Terrasse_de_gauche
100
AcDbVertex
100
AcDb3dPolylineVertex
 10
8.708734986378008
 20
25.2761956666589
 30
-0.68
 70
32
  0
VERTEX
  5
94
330
17
100
AcDbEntity
  8
03_Terrasse_de_gauche
100
AcDbVertex
100
AcDb3dPolylineVertex
 10
7.2327660441604715
 20
22.42349783105862
 30
0.02
 70
32
  0
VERTEX
  5
95
330
17
100
AcDbEntity
  8
03_Terrasse_de_gauche
100
AcDbVertex
100
AcDb3dPolylineVertex
 10
5.405222430780024
 20
21.1350659765734
 30
0.0
 70
32
  0
VERTEX
  5
96
330
17
100
AcDbEntity
  8
03_Terrasse_de_gauche
100
AcDbVertex
100
AcDb3dPolylineVertex
 10
3.3846576753752995
 20
20.504352523639042
 30
0.04
 70
32
  0
VERTEX
  5
97
330
17
100
AcDbEntity
  8
03_Terrasse_de_gauche
100
AcDbVertex
100
AcDb3dPolylineVertex
 10
3.060933836979509
 20
20.435852341076266
 30
0.03
 70
32
  0
VERTEX
  5
98
330
17
100
AcDbEntity
  8
03_Terrasse_de_gauche
100
AcDbVertex
100
AcDb3dPolylineVertex
 10
0.01298317135742445
 20
20.32442988722939
 30
0.02
 70
32
  0
VERTEX
  5
99
330
17
100
AcDbEntity
  8
03_Terrasse_de_gauche
100
AcDbVertex
100
AcDb3dPolylineVertex
 10
0.0
 20
20.0
 30
0.0
 70
32
  0
SEQEND
  5
7B
330
7A
100
AcDbEntity
  8
03_Terrasse_de_gauche
  0
TEXT
  5
9A
330
17
100
AcDbEntity
  8
03_Terrasse_de_gauche
100
AcDbText
 10
0.0
 20
31.41787041568737
 30
0.0
 40
0.32
  1
Terrasse de gauche - NON RACCORDE
100
AcDbText
  0
TEXT
  5
9B
330
17
100
AcDbEntity
  8
03_Terrasse_de_gauche
100
AcDbText
 10
0.08
 20
20.08
 30
0.0
 40
0.13
  1
P00
100
AcDbText
  0
TEXT
  5
9C
330
17
100
AcDbEntity
  8
03_Terrasse_de_gauche
100
AcDbText
 10
3.1228822329668335
 20
20.08
 30
-0.07
 40
0.13
  1
P01
100
AcDbText
  0
TEXT
  5
9D
330
17
100
AcDbEntity
  8
03_Terrasse_de_gauche
100
AcDbText
 10
7.266002484766018
 20
19.98827639824859
 30
-0.17
 40
0.13
  1
P02
100
AcDbText
  0
TEXT
  5
9E
330
17
100
AcDbEntity
  8
03_Terrasse_de_gauche
100
AcDbText
 10
7.275036204797786
 20
19.22591098227139
 30
-0.17
 40
0.13
  1
P03
100
AcDbText
  0
TEXT
  5
9F
330
17
100
AcDbEntity
  8
03_Terrasse_de_gauche
100
AcDbText
 10
8.173502020142262
 20
19.31628284262491
 30
-0.32
 40
0.13
  1
P04
100
AcDbText
  0
TEXT
  5
A0
330
17
100
AcDbEntity
  8
03_Terrasse_de_gauche
100
AcDbText
 10
9.05537583729384
 20
19.480810447251905
 30
-0.33
 40
0.13
  1
P05
100
AcDbText
  0
TEXT
  5
A1
330
17
100
AcDbEntity
  8
03_Terrasse_de_gauche
100
AcDbText
 10
11.139138387364147
 20
19.520786615489328
 30
-0.41
 40
0.13
  1
P06
100
AcDbText
  0
TEXT
  5
A2
330
17
100
AcDbEntity
  8
03_Terrasse_de_gauche
100
AcDbText
 10
11.164136639422683
 20
21.180076072802805
 30
-0.4
 40
0.13
  1
P07
100
AcDbText
  0
TEXT
  5
A3
330
17
100
AcDbEntity
  8
03_Terrasse_de_gauche
100
AcDbText
 10
10.290392991023648
 20
21.182705454832295
 30
-0.43
 40
0.13
  1
P08
100
AcDbText
  0
TEXT
  5
A4
330
17
100
AcDbEntity
  8
03_Terrasse_de_gauche
100
AcDbText
 10
10.26473261276314
 20
21.625107347509285
 30
-0.45
 40
0.13
  1
P09
100
AcDbText
  0
TEXT
  5
A5
330
17
100
AcDbEntity
  8
03_Terrasse_de_gauche
100
AcDbText
 10
10.253466905940432
 20
23.158186467407315
 30
-0.48
 40
0.13
  1
P10
100
AcDbText
  0
TEXT
  5
A6
330
17
100
AcDbEntity
  8
03_Terrasse_de_gauche
100
AcDbText
 10
10.264254543303233
 20
23.636578624199753
 30
-0.48
 40
0.13
  1
P11
100
AcDbText
  0
TEXT
  5
A7
330
17
100
AcDbEntity
  8
03_Terrasse_de_gauche
100
AcDbText
 10
11.188958005781055
 20
23.637305289778812
 30
-0.51
 40
0.13
  1
P12
100
AcDbText
  0
TEXT
  5
A8
330
17
100
AcDbEntity
  8
03_Terrasse_de_gauche
100
AcDbText
 10
11.174718706917725
 20
25.217756312459027
 30
-0.51
 40
0.13
  1
P13
100
AcDbText
  0
TEXT
  5
A9
330
17
100
AcDbEntity
  8
03_Terrasse_de_gauche
100
AcDbText
 10
13.764882308262774
 20
25.242239444674514
 30
-0.58
 40
0.13
  1
P14
100
AcDbText
  0
TEXT
  5
AA
330
17
100
AcDbEntity
  8
03_Terrasse_de_gauche
100
AcDbText
 10
13.689359285333964
 20
26.073843660530045
 30
-0.6
 40
0.13
  1
P15
100
AcDbText
  0
TEXT
  5
AB
330
17
100
AcDbEntity
  8
03_Terrasse_de_gauche
100
AcDbText
 10
13.204589681946365
 20
26.1460369296706
 30
-0.59
 40
0.13
  1
P16
100
AcDbText
  0
TEXT
  5
AC
330
17
100
AcDbEntity
  8
03_Terrasse_de_gauche
100
AcDbText
 10
13.190097006269283
 20
30.05860041580091
 30
-0.56
 40
0.13
  1
P18
100
AcDbText
  0
TEXT
  5
AD
330
17
100
AcDbEntity
  8
03_Terrasse_de_gauche
100
AcDbText
 10
12.48655684215999
 20
30.193973552002305
 30
-0.61
 40
0.13
  1
P19
100
AcDbText
  0
TEXT
  5
AE
330
17
100
AcDbEntity
  8
03_Terrasse_de_gauche
100
AcDbText
 10
8.94248331985775
 20
30.184428297648434
 30
-0.6
 40
0.13
  1
P21
100
AcDbText
  0
TEXT
  5
AF
330
17
100
AcDbEntity
  8
03_Terrasse_de_gauche
100
AcDbText
 10
8.985468935345288
 20
26.126066773156637
 30
-0.66
 40
0.13
  1
P22
100
AcDbText
  0
TEXT
  5
B0
330
17
100
AcDbEntity
  8
03_Terrasse_de_gauche
100
AcDbText
 10
8.788734986378008
 20
25.3561956666589
 30
-0.68
 40
0.13
  1
P23
100
AcDbText
  0
TEXT
  5
B1
330
17
100
AcDbEntity
  8
03_Terrasse_de_gauche
100
AcDbText
 10
7.312766044160472
 20
22.503497831058617
 30
0.02
 40
0.13
  1
P24
100
AcDbText
  0
TEXT
  5
B2
330
17
100
AcDbEntity
  8
03_Terrasse_de_gauche
100
AcDbText
 10
5.485222430780024
 20
21.2150659765734
 30
0.0
 40
0.13
  1
P25
100
AcDbText
  0
TEXT
  5
B3
330
17
100
AcDbEntity
  8
03_Terrasse_de_gauche
100
AcDbText
 10
3.4646576753752996
 20
20.58435252363904
 30
0.04
 40
0.13
  1
P26
100
AcDbText
  0
TEXT
  5
B4
330
17
100
AcDbEntity
  8
03_Terrasse_de_gauche
100
AcDbText
 10
3.1409338369795092
 20
20.515852341076265
 30
0.03
 40
0.13
  1
P27
100
AcDbText
  0
TEXT
  5
B5
330
17
100
AcDbEntity
  8
03_Terrasse_de_gauche
100
AcDbText
 10
0.09298317135742445
 20
20.404429887229387
 30
0.02
 40
0.13
  1
P28
100
AcDbText
  0
POLYLINE
  5
B7
330
17
100
AcDbEntity
  8
04_Zone_escalier
100
AcDb3dPolyline
 66
1
 10
0.0
 20
0.0
 30
0.0
 70
8
  0
VERTEX
  5
B9
330
17
100
AcDbEntity
  8
04_Zone_escalier
100
AcDbVertex
100
AcDb3dPolylineVertex
 10
25.0
 20
20.0
 30
0.0
 70
32
  0
VERTEX
  5
BA
330
17
100
AcDbEntity
  8
04_Zone_escalier
100
AcDbVertex
100
AcDb3dPolylineVertex
 10
26.19999981474257
 20
20.0
 30
-0.19
 70
32
  0
VERTEX
  5
BB
330
17
100
AcDbEntity
  8
04_Zone_escalier
100
AcDbVertex
100
AcDb3dPolylineVertex
 10
27.345316251020108
 20
20.43256100502234
 30
-0.41
 70
32
  0
VERTEX
  5
BC
330
17
100
AcDbEntity
  8
04_Zone_escalier
100
AcDbVertex
100
AcDb3dPolylineVertex
 10
27.413815900432933
 20
20.477035301122957
 30
-0.56
 70
32
  0
VERTEX
  5
BD
330
17
100
AcDbEntity
  8
04_Zone_escalier
100
AcDbVertex
100
AcDb3dPolylineVertex
 10
28.221871694639496
 20
22.70056954153753
 30
-0.62
 70
32
  0
VERTEX
  5
BE
330
17
100
AcDbEntity
  8
04_Zone_escalier
100
AcDbVertex
100
AcDb3dPolylineVertex
 10
28.375231378818256
 20
23.136822887774773
 30
-0.55
 70
32
  0
VERTEX
  5
BF
330
17
100
AcDbEntity
  8
04_Zone_escalier
100
AcDbVertex
100
AcDb3dPolylineVertex
 10
28.423959202753547
 20
23.237335412523358
 30
-0.02
 70
32
  0
VERTEX
  5
C0
330
17
100
AcDbEntity
  8
04_Zone_escalier
100
AcDbVertex
100
AcDb3dPolylineVertex
 10
29.437789306238336
 20
23.06666922543984
 30
0.15
 70
32
  0
VERTEX
  5
C1
330
17
100
AcDbEntity
  8
04_Zone_escalier
100
AcDbVertex
100
AcDb3dPolylineVertex
 10
29.324746417871427
 20
22.37009217861207
 30
0.24
 70
32
  0
VERTEX
  5
C2
330
17
100
AcDbEntity
  8
04_Zone_escalier
100
AcDbVertex
100
AcDb3dPolylineVertex
 10
29.314954891182055
 20
22.342338781535837
 30
0.18
 70
32
  0
VERTEX
  5
C3
330
17
100
AcDbEntity
  8
04_Zone_escalier
100
AcDbVertex
100
AcDb3dPolylineVertex
 10
29.289583100356527
 20
19.943789824592482
 30
0.17
 70
32
  0
VERTEX
  5
C4
330
17
100
AcDbEntity
  8
04_Zone_escalier
100
AcDbVertex
100
AcDb3dPolylineVertex
 10
28.11636943087096
 20
19.056049223745703
 30
0.23
 70
32
  0
VERTEX
  5
C5
330
17
100
AcDbEntity
  8
04_Zone_escalier
100
AcDbVertex
100
AcDb3dPolylineVertex
 10
27.389596850532403
 20
19.079617009905412
 30
0.35
 70
32
  0
VERTEX
  5
C6
330
17
100
AcDbEntity
  8
04_Zone_escalier
100
AcDbVertex
100
AcDb3dPolylineVertex
 10
27.22117951366924
 20
19.1329529249218
 30
0.47
 70
32
  0
VERTEX
  5
C7
330
17
100
AcDbEntity
  8
04_Zone_escalier
100
AcDbVertex
100
AcDb3dPolylineVertex
 10
26.11184406535625
 20
19.12655642339174
 30
0.55
 70
32
  0
VERTEX
  5
C8
330
17
100
AcDbEntity
  8
04_Zone_escalier
100
AcDbVertex
100
AcDb3dPolylineVertex
 10
25.98570265039107
 20
19.1387625914491
 30
0.7
 70
32
  0
VERTEX
  5
C9
330
17
100
AcDbEntity
  8
04_Zone_escalier
100
AcDbVertex
100
AcDb3dPolylineVertex
 10
24.903502370530774
 20
19.073956309186503
 30
0.79
 70
32
  0
VERTEX
  5
CA
330
17
100
AcDbEntity
  8
04_Zone_escalier
100
AcDbVertex
100
AcDb3dPolylineVertex
 10
24.804861972553226
 20
19.057900011062095
 30
0.92
 70
32
  0
VERTEX
  5
CB
330
17
100
AcDbEntity
  8
04_Zone_escalier
100
AcDbVertex
100
AcDb3dPolylineVertex
 10
24.738955477253985
 20
20.06578092081613
 30
0.89
 70
32
  0
VERTEX
  5
CC
330
17
100
AcDbEntity
  8
04_Zone_escalier
100
AcDbVertex
100
AcDb3dPolylineVertex
 10
25.0
 20
20.0
 30
0.0
 70
32
  0
SEQEND
  5
B8
330
B7
100
AcDbEntity
  8
04_Zone_escalier
  0
TEXT
  5
CD
330
17
100
AcDbEntity
  8
04_Zone_escalier
100
AcDbText
 10
24.738955477253985
 20
24.53733541252336
 30
0.0
 40
0.32
  1
Zone escalier - NON RACCORDE
100
AcDbText
  0
TEXT
  5
CE
330
17
100
AcDbEntity
  8
04_Zone_escalier
100
AcDbText
 10
25.08
 20
20.08
 30
0.0
 40
0.13
  1
P00
100
AcDbText
  0
TEXT
  5
CF
330
17
100
AcDbEntity
  8
04_Zone_escalier
100
AcDbText
 10
26.279999814742567
 20
20.08
 30
-0.19
 40
0.13
  1
P01
100
AcDbText
  0
TEXT
  5
D0
330
17
100
AcDbEntity
  8
04_Zone_escalier
100
AcDbText
 10
27.425316251020107
 20
20.512561005022338
 30
-0.41
 40
0.13
  1
P02
100
AcDbText
  0
TEXT
  5
D1
330
17
100
AcDbEntity
  8
04_Zone_escalier
100
AcDbText
 10
27.49381590043293
 20
20.557035301122955
 30
-0.56
 40
0.13
  1
P03
100
AcDbText
  0
TEXT
  5
D2
330
17
100
AcDbEntity
  8
04_Zone_escalier
100
AcDbText
 10
28.301871694639495
 20
22.780569541537528
 30
-0.62
 40
0.13
  1
P04
100
AcDbText
  0
TEXT
  5
D3
330
17
100
AcDbEntity
  8
04_Zone_escalier
100
AcDbText
 10
28.455231378818254
 20
23.21682288777477
 30
-0.55
 40
0.13
  1
P05
100
AcDbText
  0
TEXT
  5
D4
330
17
100
AcDbEntity
  8
04_Zone_escalier
100
AcDbText
 10
28.503959202753546
 20
23.317335412523356
 30
-0.02
 40
0.13
  1
P06
100
AcDbText
  0
TEXT
  5
D5
330
17
100
AcDbEntity
  8
04_Zone_escalier
100
AcDbText
 10
29.517789306238335
 20
23.146669225439837
 30
0.15
 40
0.13
  1
P07
100
AcDbText
  0
TEXT
  5
D6
330
17
100
AcDbEntity
  8
04_Zone_escalier
100
AcDbText
 10
29.404746417871426
 20
22.450092178612067
 30
0.24
 40
0.13
  1
P08
100
AcDbText
  0
TEXT
  5
D7
330
17
100
AcDbEntity
  8
04_Zone_escalier
100
AcDbText
 10
29.394954891182053
 20
22.422338781535835
 30
0.18
 40
0.13
  1
P09
100
AcDbText
  0
TEXT
  5
D8
330
17
100
AcDbEntity
  8
04_Zone_escalier
100
AcDbText
 10
29.369583100356525
 20
20.02378982459248
 30
0.17
 40
0.13
  1
P10
100
AcDbText
  0
TEXT
  5
D9
330
17
100
AcDbEntity
  8
04_Zone_escalier
100
AcDbText
 10
28.19636943087096
 20
19.1360492237457
 30
0.23
 40
0.13
  1
P11
100
AcDbText
  0
TEXT
  5
DA
330
17
100
AcDbEntity
  8
04_Zone_escalier
100
AcDbText
 10
27.4695968505324
 20
19.15961700990541
 30
0.35
 40
0.13
  1
P12
100
AcDbText
  0
TEXT
  5
DB
330
17
100
AcDbEntity
  8
04_Zone_escalier
100
AcDbText
 10
27.30117951366924
 20
19.212952924921797
 30
0.47
 40
0.13
  1
P13
100
AcDbText
  0
TEXT
  5
DC
330
17
100
AcDbEntity
  8
04_Zone_escalier
100
AcDbText
 10
26.19184406535625
 20
19.20655642339174
 30
0.55
 40
0.13
  1
P14
100
AcDbText
  0
TEXT
  5
DD
330
17
100
AcDbEntity
  8
04_Zone_escalier
100
AcDbText
 10
26.065702650391067
 20
19.2187625914491
 30
0.7
 40
0.13
  1
P15
100
AcDbText
  0
TEXT
  5
DE
330
17
100
AcDbEntity
  8
04_Zone_escalier
100
AcDbText
 10
24.983502370530772
 20
19.1539563091865
 30
0.79
 40
0.13
  1
P16
100
AcDbText
  0
TEXT
  5
DF
330
17
100
AcDbEntity
  8
04_Zone_escalier
100
AcDbText
 10
24.884861972553225
 20
19.137900011062094
 30
0.92
 40
0.13
  1
P17
100
AcDbText
  0
TEXT
  5
E0
330
17
100
AcDbEntity
  8
04_Zone_escalier
100
AcDbText
 10
24.818955477253983
 20
20.14578092081613
 30
0.89
 40
0.13
  1
P18
100
AcDbText
  0
TEXT
  5
E1
330
17
100
AcDbEntity
  8
0
100
AcDbText
 10
0.0
 20
35.0
 30
0.0
 40
0.5
  1
RELEVES INDEPENDANTS - DISPOSITION ECLATEE NON TOPOGRAPHIQUE - METRES
100
AcDbText
  0
ENDSEC
  0
SECTION
  2
OBJECTS
  0
DICTIONARY
  5
A
330
0
100
AcDbDictionary
281
1
  3
ACAD_COLOR
350
B
  3
ACAD_GROUP
350
C
  3
ACAD_LAYOUT
350
D
  3
ACAD_MATERIAL
350
E
  3
ACAD_MLEADERSTYLE
350
F
  3
ACAD_MLINESTYLE
350
10
  3
ACAD_PLOTSETTINGS
350
11
  3
ACAD_PLOTSTYLENAME
350
12
  3
ACAD_SCALELIST
350
14
  3
ACAD_TABLESTYLE
350
15
  3
ACAD_VISUALSTYLE
350
16
  3
EZDXF_META
350
2D
  0
DICTIONARY
  5
B
330
A
100
AcDbDictionary
281
1
  0
DICTIONARY
  5
C
330
A
100
AcDbDictionary
281
1
  0
DICTIONARY
  5
D
330
A
100
AcDbDictionary
281
1
  3
Model
350
1A
  3
Layout1
350
1E
  0
DICTIONARY
  5
E
330
A
100
AcDbDictionary
281
1
  3
ByBlock
350
1F
  3
ByLayer
350
20
  3
Global
350
21
  0
DICTIONARY
  5
F
330
A
100
AcDbDictionary
281
1
  3
Standard
350
2C
  0
DICTIONARY
  5
10
330
A
100
AcDbDictionary
281
1
  3
Standard
350
22
  0
DICTIONARY
  5
11
330
A
100
AcDbDictionary
281
1
  0
ACDBDICTIONARYWDFLT
  5
12
330
A
100
AcDbDictionary
281
1
  3
Normal
350
13
100
AcDbDictionaryWithDefault
340
13
  0
ACDBPLACEHOLDER
  5
13
330
12
  0
DICTIONARY
  5
14
330
A
100
AcDbDictionary
281
1
  0
DICTIONARY
  5
15
330
A
100
AcDbDictionary
281
1
  0
DICTIONARY
  5
16
330
A
100
AcDbDictionary
281
1
  0
LAYOUT
  5
1A
330
D
100
AcDbPlotSettings
  1

  4
A3
  6

 40
7.5
 41
20.0
 42
7.5
 43
20.0
 44
420.0
 45
297.0
 46
0.0
 47
0.0
 48
0.0
 49
0.0
140
0.0
141
0.0
142
1.0
143
1.0
 70
1024
 72
1
 73
0
 74
5
  7

 75
16
 76
0
 77
2
 78
300
147
1.0
148
0.0
149
0.0
100
AcDbLayout
  1
Model
 70
1
 71
0
 10
0.0
 20
0.0
 11
420.0
 21
297.0
 12
0.0
 22
0.0
 32
0.0
 14
1e+20
 24
1e+20
 34
1e+20
 15
-1e+20
 25
-1e+20
 35
-1e+20
146
0.0
 13
0.0
 23
0.0
 33
0.0
 16
1.0
 26
0.0
 36
0.0
 17
0.0
 27
1.0
 37
0.0
 76
1
330
17
  0
LAYOUT
  5
1E
330
D
100
AcDbPlotSettings
  1

  4
A3
  6

 40
7.5
 41
20.0
 42
7.5
 43
20.0
 44
420.0
 45
297.0
 46
0.0
 47
0.0
 48
0.0
 49
0.0
140
0.0
141
0.0
142
1.0
143
1.0
 70
0
 72
1
 73
0
 74
5
  7

 75
16
 76
0
 77
2
 78
300
147
1.0
148
0.0
149
0.0
100
AcDbLayout
  1
Layout1
 70
1
 71
1
 10
0.0
 20
0.0
 11
420.0
 21
297.0
 12
0.0
 22
0.0
 32
0.0
 14
1e+20
 24
1e+20
 34
1e+20
 15
-1e+20
 25
-1e+20
 35
-1e+20
146
0.0
 13
0.0
 23
0.0
 33
0.0
 16
1.0
 26
0.0
 36
0.0
 17
0.0
 27
1.0
 37
0.0
 76
1
330
1B
  0
MATERIAL
  5
1F
102
{ACAD_REACTORS
330
E
102
}
330
E
100
AcDbMaterial
  1
ByBlock
  2

 70
0
 40
1.0
 71
1
 41
1.0
 91
-1023410177
 42
1.0
 72
1
  3

 73
1
 74
1
 75
1
 44
0.5
 73
0
 45
1.0
 46
1.0
 77
1
  4

 78
1
 79
1
170
1
 48
1.0
171
1
  6

172
1
173
1
174
1
140
1.0
141
1.0
175
1
  7

176
1
177
1
178
1
143
1.0
179
1
  8

270
1
271
1
272
1
145
1.0
146
1.0
273
1
  9

274
1
275
1
276
1
 42
1.0
 72
1
  3

 73
1
 74
1
 75
1
 94
63
  0
MATERIAL
  5
20
102
{ACAD_REACTORS
330
E
102
}
330
E
100
AcDbMaterial
  1
ByLayer
  2

 70
0
 40
1.0
 71
1
 41
1.0
 91
-1023410177
 42
1.0
 72
1
  3

 73
1
 74
1
 75
1
 44
0.5
 73
0
 45
1.0
 46
1.0
 77
1
  4

 78
1
 79
1
170
1
 48
1.0
171
1
  6

172
1
173
1
174
1
140
1.0
141
1.0
175
1
  7

176
1
177
1
178
1
143
1.0
179
1
  8

270
1
271
1
272
1
145
1.0
146
1.0
273
1
  9

274
1
275
1
276
1
 42
1.0
 72
1
  3

 73
1
 74
1
 75
1
 94
63
  0
MATERIAL
  5
21
102
{ACAD_REACTORS
330
E
102
}
330
E
100
AcDbMaterial
  1
Global
  2

 70
0
 40
1.0
 71
1
 41
1.0
 91
-1023410177
 42
1.0
 72
1
  3

 73
1
 74
1
 75
1
 44
0.5
 73
0
 45
1.0
 46
1.0
 77
1
  4

 78
1
 79
1
170
1
 48
1.0
171
1
  6

172
1
173
1
174
1
140
1.0
141
1.0
175
1
  7

176
1
177
1
178
1
143
1.0
179
1
  8

270
1
271
1
272
1
145
1.0
146
1.0
273
1
  9

274
1
275
1
276
1
 42
1.0
 72
1
  3

 73
1
 74
1
 75
1
 94
63
  0
MLINESTYLE
  5
22
102
{ACAD_REACTORS
330
10
102
}
330
10
100
AcDbMlineStyle
  2
Standard
 70
0
  3

 62
256
 51
90.0
 52
90.0
 71
2
 49
0.5
 62
256
  6
BYLAYER
 49
-0.5
 62
256
  6
BYLAYER
  0
MLEADERSTYLE
  5
2C
102
{ACAD_REACTORS
330
F
102
}
330
F
100
AcDbMLeaderStyle
179
2
170
2
171
1
172
0
 90
2
 40
0.0
 41
0.0
173
1
 91
-1056964608
 92
-2
290
1
 42
2.0
291
1
 43
8.0
  3
Standard
 44
4.0
300

342
29
174
1
175
1
176
0
178
1
 93
-1056964608
 45
4.0
292
0
297
0
 46
4.0
 94
-1056964608
 47
1.0
 49
1.0
140
1.0
294
1
141
0.0
177
0
142
1.0
295
0
296
0
143
3.75
271
0
272
9
273
9
  0
DICTIONARY
  5
2D
330
A
100
AcDbDictionary
280
1
281
1
  3
CREATED_BY_EZDXF
350
2E
  3
WRITTEN_BY_EZDXF
350
E4
  0
DICTIONARYVAR
  5
2E
330
2D
100
DictionaryVariables
280
0
  1
1.4.4 @ 2026-09-17T09:34:24.938697+00:00
  0
DICTIONARYVAR
  5
E4
330
2D
100
DictionaryVariables
280
0
  1
1.4.4 @ 2026-09-17T09:34:24.942974+00:00
  0
ENDSEC
  0
EOF
